<svg width="100%" height="100%" viewBox="0 0 789 900" fill="none" xmlns="http://www.w3.org/2000/svg">
    <g clip-path="url(#clip0_101_3)">
    <path d="M326.08 -258.005C287.181 -415.056 0.0906372 -54.1669 -67.4404 38.4969C-179.062 40.1833 -424.124 43.8258 -511.406 44.9038C-620.508 46.2514 -927.029 225.165 -974.144 309.441C-1021.26 393.718 -653.597 1004.16 -585.448 1007.29C-517.3 1010.43 87.0707 902.187 220.5 824.5C353.929 746.813 434.189 816.772 547.5 810.5C660.811 804.228 554.737 642.021 569 455C583.263 267.979 742.855 241.115 777.5 187.999C812.145 134.883 725.827 -44.6471 716.69 -108.537C707.553 -172.427 585.801 -61.4433 458.222 -14.5388C330.642 32.3657 364.98 -100.954 326.08 -258.005Z" fill="url(#paint0_linear_101_3)"/>
    </g>
    <defs>
    <linearGradient id="paint0_linear_101_3" x1="-12.0003" y1="399.999" x2="1037.5" y2="905.999" gradientUnits="userSpaceOnUse">
    <stop stop-color="#7213EA"/>
    <stop offset="1" stop-color="#1E49E2"/>
    </linearGradient>
    <clipPath id="clip0_101_3">
    <rect width="789" height="900" fill="white"/>
    </clipPath>
    </defs>
</svg>
